<?xml version="1.0" encoding="utf-8"?>
<!-- Generator: Adobe Illustrator 23.0.1, SVG Export Plug-In . SVG Version: 6.00 Build 0)  -->
<svg version="1.1" id="Layer_1" xmlns="http://www.w3.org/2000/svg" xmlns:xlink="http://www.w3.org/1999/xlink" x="0px" y="0px"
	 viewBox="0 0 146.4 60.7" style="enable-background:new 0 0 146.4 60.7;" xml:space="preserve">
<style type="text/css">
	.st0{fill:#365872;}
	.st1{fill:#3A8DDE;}
	.st2{fill:#999999;}
	.st3{fill:#CCCCCC;}
	.st4{fill:#909295;}
	.st5{fill:#D0D2D3;}
</style>
<g>
	<g>
		<polygon class="st0" points="44.2,24.6 38.9,20.7 46.5,40.7 		"/>
		<path class="st1" d="M38.9,20.7c0.8,4.2-0.1,8.7-2.8,12.4l-9.1,12.5l6.4,1.3l13.1-6.4L38.9,20.7z"/>
		<polygon class="st2" points="24,3 20.2,8.2 40.2,0.6 		"/>
		<path class="st3" d="M32.6,10.9L45.1,20l1.3-6.4L40.1,0.6L20.2,8.2C24.5,7.3,29,8.3,32.6,10.9z"/>
		<path class="st1" d="M10.4,14.5l9-12.5l-6.4-1.3l-13,6.3l7.6,20C6.8,22.7,7.7,18.1,10.4,14.5z"/>
		<polygon class="st0" points="0.1,6.9 2.4,23.1 7.7,26.9 		"/>
		<path class="st3" d="M14.4,37.1L14.4,37.1L14.4,37.1c-0.2-0.1-0.4-0.2-0.5-0.4L1.4,27.6L0.1,34L6.5,47l20-7.6
			C22.3,40.2,18,39.5,14.4,37.1z"/>
		<polygon class="st2" points="22.6,44.7 26.4,39.5 6.4,47 		"/>
	</g>
	<g>
		<g>
			<path class="st1" d="M62.7,33.1l2,2.2h-6.6l-4-4.4l6.6-22l6.6-4.4h6.6l-2,6.6h-2.6L62.7,33.1z M66,26.5h4l9.3,10.4h-12L64.1,33
				L66,26.5z M71.2,26.5l4.6-15.4h-2.6l2-6.6h6.6l3.9,4.4l-6.6,22l-2.5,1.6L71.2,26.5z"/>
			<path class="st1" d="M101.3,4.5l-9.2,30.7H83l9.2-30.7C92.2,4.5,101.3,4.5,101.3,4.5z M104.2,16.6l1.6-5.4h-5.2l2-6.6h9.2
				l3.9,4.4l-3,9.9L111,20l1.1,1.1l-3,9.9l-6.5,4.4h-9.2l2-6.6h5.2l1.6-5.5H97l1.9-6.6h0.1v-0.1C98.9,16.6,104.2,16.6,104.2,16.6z"
				/>
			<path class="st1" d="M131.4,4.5l-9.2,30.7h-9.2l9.2-30.7C122.2,4.5,131.4,4.5,131.4,4.5z M141.9,4.5l3.9,4.4l-3,9.9l-6.5,4.4
				h-9.2l2-6.6h5.3l1.6-5.5h-5.2l2-6.6L141.9,4.5L141.9,4.5z"/>
		</g>
		<g>
			<path class="st4" d="M54.1,46.7v-5.4h1v5.4H54.1z"/>
			<path class="st4" d="M61.7,43.8c0.4,0.6,0.7,1.1,0.9,1.5l0,0c0-0.7-0.1-1.2-0.1-1.6v-2.5h1v5.4h-1.1l-1.8-2.5
				c-0.3-0.4-0.6-0.9-1-1.5l0,0c0,0.6,0.1,1.2,0.1,1.6v2.5h-1v-5.4h1.1L61.7,43.8z"/>
			<path class="st4" d="M69.6,46.7h-1v-4.6h-1.8v-0.8h4.4v0.8h-1.8L69.6,46.7L69.6,46.7z"/>
			<path class="st4" d="M75.6,45.9h2.7v0.8h-3.7v-5.4h3.5v0.8h-2.5v1.4h2.2v0.8h-2.2C75.6,44.5,75.6,45.9,75.6,45.9z"/>
			<path class="st4" d="M85.7,42.9c0,0.4-0.1,0.7-0.3,1c-0.2,0.3-0.6,0.4-1,0.6l0,0l1.6,2.2h-1.2l-1.5-2.1h-0.7v2.1h-1v-5.4h1.6
				c0.3,0,0.5,0,0.8,0.1c0.2,0,0.4,0.1,0.6,0.1c0.3,0.1,0.6,0.3,0.7,0.6C85.7,42.3,85.7,42.6,85.7,42.9z M83.2,43.8
				c0.2,0,0.4,0,0.6,0c0.1,0,0.3-0.1,0.4-0.1c0.2-0.1,0.4-0.2,0.4-0.3c0.1-0.1,0.1-0.3,0.1-0.4c0-0.1,0-0.3-0.1-0.4
				c-0.1-0.1-0.1-0.2-0.3-0.3c-0.1-0.1-0.2-0.1-0.4-0.1s-0.4,0-0.5,0h-0.7v1.5H83.2z"/>
			<path class="st4" d="M92.2,43.8c0.4,0.6,0.7,1.1,0.9,1.5l0,0c0-0.7-0.1-1.2-0.1-1.6v-2.5h1v5.4H93l-1.8-2.5
				c-0.3-0.4-0.6-0.9-1-1.5l0,0c0,0.6,0.1,1.2,0.1,1.6v2.5h-1v-5.4h1.1L92.2,43.8z"/>
			<path class="st4" d="M101,45.3h-2l-0.5,1.3h-1.1l2.1-5.4h0.9l2.1,5.4h-1.1L101,45.3z M99.9,42.6c-0.2,0.6-0.4,1.1-0.5,1.4
				l-0.2,0.5h1.4l-0.2-0.5C100.4,43.6,100.1,43.2,99.9,42.6L99.9,42.6z"/>
			<path class="st4" d="M107.6,46.7h-1v-4.6h-1.8v-0.8h4.4v0.8h-1.8L107.6,46.7L107.6,46.7z"/>
			<path class="st4" d="M112.6,46.7v-5.4h1v5.4H112.6z"/>
			<path class="st4" d="M122.3,44c0,0.4-0.1,0.8-0.1,1.1c-0.1,0.4-0.3,0.6-0.5,0.9c-0.2,0.2-0.5,0.4-0.8,0.6
				c-0.4,0.1-0.7,0.2-1.1,0.2c-0.4,0-0.8-0.1-1.1-0.2s-0.6-0.4-0.8-0.6c-0.2-0.3-0.4-0.6-0.5-0.9c-0.1-0.4-0.1-0.7-0.1-1.1
				s0.1-0.8,0.1-1.1c0.1-0.4,0.3-0.6,0.5-0.9c0.2-0.2,0.5-0.4,0.8-0.6s0.7-0.2,1.1-0.2c0.4,0,0.8,0.1,1.1,0.2s0.6,0.4,0.8,0.6
				c0.2,0.3,0.4,0.6,0.5,0.9C122.2,43.2,122.3,43.6,122.3,44z M121.3,44c0-0.4-0.1-0.6-0.1-0.8c-0.1-0.2-0.2-0.4-0.4-0.6
				c-0.1-0.1-0.3-0.3-0.5-0.4s-0.4-0.1-0.6-0.1c-0.2,0-0.4,0.1-0.6,0.1c-0.2,0.1-0.4,0.2-0.5,0.4c-0.1,0.1-0.3,0.4-0.4,0.6
				c-0.1,0.2-0.1,0.6-0.1,0.8c0,0.4,0.1,0.6,0.1,0.8c0.1,0.2,0.2,0.4,0.4,0.6c0.1,0.1,0.3,0.3,0.5,0.4c0.2,0.1,0.4,0.1,0.6,0.1
				c0.2,0,0.4-0.1,0.6-0.1c0.2-0.1,0.4-0.2,0.5-0.4c0.1-0.1,0.3-0.4,0.4-0.6C121.3,44.6,121.3,44.3,121.3,44z"/>
			<path class="st4" d="M128.7,43.8c0.4,0.6,0.7,1.1,0.9,1.5l0,0c0-0.7-0.1-1.2-0.1-1.6v-2.5h1v5.4h-1.1l-1.8-2.5
				c-0.3-0.4-0.6-0.9-1-1.5l0,0c0,0.6,0.1,1.2,0.1,1.6v2.5h-0.9v-5.4h1.1L128.7,43.8z"/>
			<path class="st4" d="M137.4,45.3h-2l-0.5,1.3h-1.1l2.1-5.4h0.9l2.1,5.4h-1.1L137.4,45.3z M136.4,42.6c-0.2,0.6-0.4,1.1-0.5,1.4
				l-0.2,0.5h1.4l-0.2-0.5C136.8,43.6,136.6,43.2,136.4,42.6L136.4,42.6z"/>
			<path class="st4" d="M143.2,41.3v4.6h2.5v0.8h-3.5v-5.4L143.2,41.3L143.2,41.3z"/>
		</g>
	</g>
	<rect x="0" y="51.7" class="st1" width="146.4" height="9"/>
	<g>
		<path class="st5" d="M8.6,54.6c-0.1,0.2-0.1,0.6-0.3,1.2l-0.8,2.9H6.9l-1.5-4.9H6l0.8,2.9C7,57.1,7.1,57.5,7.2,58l0,0
			c0.1-0.2,0.1-0.4,0.1-0.6c0.1-0.2,0.1-0.4,0.1-0.6l0.7-2.9h0.6l0.7,2.9c0.2,0.7,0.3,1.1,0.3,1.2l0,0c0.1-0.4,0.2-0.8,0.4-1.3
			l0.8-2.9h0.6l-1.5,4.9H9.4l-0.8-2.9C8.7,55.2,8.6,54.8,8.6,54.6L8.6,54.6z"/>
		<path class="st5" d="M16.3,54.6c-0.1,0.2-0.1,0.6-0.3,1.2l-0.8,2.9h-0.6l-1.5-4.9h0.6l0.8,2.9c0.1,0.4,0.2,0.8,0.4,1.3l0,0
			c0.1-0.2,0.1-0.4,0.1-0.6c0.1-0.2,0.1-0.4,0.1-0.6l0.7-2.9h0.6l0.7,2.9c0.2,0.7,0.3,1.1,0.3,1.2l0,0c0.1-0.4,0.2-0.8,0.4-1.3
			l0.8-2.9h0.6l-1.5,4.9h-0.6l-0.8-2.9C16.5,55.2,16.4,54.8,16.3,54.6L16.3,54.6z"/>
		<path class="st5" d="M24,54.6c-0.1,0.2-0.1,0.6-0.3,1.2L23,58.7h-0.6l-1.5-4.9h0.6l0.8,2.9c0.1,0.4,0.3,0.8,0.4,1.3l0,0
			c0.1-0.2,0.1-0.4,0.1-0.6c0.1-0.2,0.1-0.4,0.1-0.6l0.7-2.9h0.6l0.7,2.9c0.2,0.7,0.3,1.1,0.3,1.2l0,0c0.1-0.4,0.2-0.8,0.4-1.3
			l0.8-2.9h0.6l-1.5,4.9h-0.6L24,55.8C24.2,55.2,24.1,54.8,24,54.6L24,54.6z"/>
		<path class="st5" d="M28.9,58.7V58h0.7v0.7H28.9z"/>
		<path class="st5" d="M36.4,56.1c0,0.2,0,0.4-0.1,0.6c-0.1,0.2-0.1,0.4-0.2,0.6c-0.1,0.1-0.2,0.4-0.4,0.5c-0.1,0.1-0.3,0.3-0.4,0.4
			l0,0c0.2,0,0.4-0.1,0.6-0.1c0.2,0,0.4,0,0.6,0v0.6c-0.1,0-0.2,0-0.4,0c-0.1,0-0.3,0-0.5,0c-0.1,0-0.3,0-0.4,0s-0.3,0-0.4,0
			c-0.1,0-0.3,0-0.4,0c-0.1,0-0.2,0-0.4,0c-0.4,0-0.7-0.1-1-0.2c-0.3-0.1-0.5-0.3-0.7-0.5c-0.2-0.2-0.4-0.5-0.4-0.8s-0.1-0.6-0.1-1
			c0-0.4,0.1-0.7,0.1-1c0.1-0.3,0.3-0.6,0.4-0.8c0.2-0.2,0.4-0.4,0.7-0.5c0.3-0.1,0.6-0.2,0.9-0.2s0.7,0.1,1,0.2
			c0.3,0.1,0.5,0.3,0.7,0.5c0.2,0.2,0.4,0.5,0.4,0.8C36.4,55.5,36.4,55.8,36.4,56.1z M35.8,56.2c0-0.4-0.1-0.6-0.1-0.8
			c-0.1-0.3-0.2-0.4-0.4-0.6c-0.1-0.1-0.4-0.3-0.5-0.4c-0.2-0.1-0.4-0.1-0.6-0.1s-0.4,0.1-0.6,0.1c-0.2,0.1-0.4,0.2-0.5,0.4
			c-0.1,0.1-0.3,0.4-0.4,0.6c-0.1,0.3-0.1,0.6-0.1,0.8c0,0.4,0.1,0.6,0.1,0.8c0.1,0.3,0.2,0.4,0.4,0.6c0.1,0.1,0.4,0.3,0.5,0.4
			c0.2,0.1,0.4,0.1,0.6,0.1c0.2,0,0.4-0.1,0.6-0.1c0.2-0.1,0.4-0.2,0.5-0.4s0.3-0.4,0.4-0.6C35.8,56.8,35.8,56.5,35.8,56.2z"/>
		<path class="st5" d="M41.1,56.1c0.1,0,0.3,0.1,0.4,0.1c0.1,0.1,0.2,0.1,0.3,0.2c0.1,0.1,0.1,0.2,0.2,0.4C42,57,42,57.1,42,57.3
			c0,0.1,0,0.2-0.1,0.4c0,0.1-0.1,0.3-0.1,0.4c-0.1,0.1-0.2,0.2-0.3,0.4c-0.1,0.1-0.3,0.2-0.5,0.2c-0.1,0.1-0.3,0.1-0.5,0.1
			c-0.1,0-0.4,0-0.6,0h-1.3v-4.9h1.2c0.1,0,0.2,0,0.3,0s0.1,0,0.3,0c0.1,0,0.1,0,0.2,0c0.1,0,0.1,0,0.2,0.1c0.1,0.1,0.3,0.1,0.4,0.1
			c0.1,0.1,0.2,0.1,0.3,0.3c0.1,0.1,0.1,0.2,0.2,0.4c0.1,0.1,0.1,0.3,0.1,0.4s0,0.2-0.1,0.4c0,0.1-0.1,0.2-0.1,0.3
			c-0.1,0.1-0.1,0.1-0.2,0.3C41.3,56,41.2,56.1,41.1,56.1L41.1,56.1z M40.2,55.8c0.1,0,0.2,0,0.3,0s0.1,0,0.2-0.1
			c0.2-0.1,0.3-0.1,0.4-0.3c0.1-0.1,0.1-0.3,0.1-0.4c0-0.2-0.1-0.4-0.1-0.4c-0.1-0.1-0.2-0.2-0.4-0.3c-0.1,0-0.2-0.1-0.4-0.1
			s-0.3,0-0.4,0h-0.6v1.6H40.2z M39.3,56.4v1.7H40c0.1,0,0.4,0,0.5,0s0.3-0.1,0.4-0.1c0.1-0.1,0.2-0.1,0.3-0.1
			c0.1-0.1,0.1-0.1,0.2-0.2c0.1-0.1,0.1-0.1,0.1-0.2c0-0.1,0-0.1,0-0.2c0-0.1,0-0.2,0-0.3c0-0.1-0.1-0.1-0.1-0.2
			c-0.1-0.1-0.1-0.1-0.2-0.1c-0.1-0.1-0.2-0.1-0.3-0.1c-0.1,0-0.1,0-0.3-0.1c-0.1,0-0.2,0-0.4,0H39.3z"/>
		<path class="st5" d="M44.9,58.7h-0.6v-4.9h1.3c0.2,0,0.4,0,0.6,0.1c0.1,0,0.4,0.1,0.5,0.1c0.3,0.1,0.5,0.3,0.6,0.5
			c0.1,0.2,0.2,0.5,0.2,0.8s-0.1,0.5-0.1,0.6c-0.1,0.2-0.2,0.4-0.4,0.5c-0.2,0.1-0.4,0.2-0.7,0.3c-0.3,0.1-0.6,0.1-0.9,0.1
			c-0.1,0-0.4,0-0.5,0C44.9,56.8,44.9,58.7,44.9,58.7z M44.9,56.1c0.1,0,0.1,0,0.3,0c0.1,0,0.1,0,0.3,0c0.3,0,0.5,0,0.7-0.1
			c0.2-0.1,0.4-0.1,0.5-0.2c0.1-0.1,0.2-0.2,0.3-0.3c0.1-0.1,0.1-0.3,0.1-0.4c0-0.2-0.1-0.4-0.1-0.5c-0.1-0.1-0.2-0.2-0.4-0.3
			c-0.2,0.1-0.3,0.1-0.4,0c-0.1,0-0.3,0-0.5,0h-0.7C44.9,54.3,44.9,56.1,44.9,56.1z"/>
		<path class="st5" d="M49.7,58.7v-4.9h0.6v4.9H49.7z"/>
		<path class="st5" d="M55.2,56.5c0.3,0.4,0.6,0.8,0.9,1.3l0,0c0-0.5-0.1-1-0.1-1.5v-2.6h0.6v4.9h-0.6l-1.9-2.7
			c-0.4-0.5-0.6-0.9-0.9-1.3l0,0c0,0.4,0.1,1,0.1,1.6v2.5h-0.6v-4.9h0.6L55.2,56.5z"/>
		<path class="st5" d="M60.7,58.7h-0.6v-4.3h-1.6v-0.6h3.9v0.6h-1.6L60.7,58.7L60.7,58.7z"/>
		<path class="st5" d="M64.9,58.1h2.5v0.6h-3.1v-4.9h3v0.6h-2.3v1.6H67v0.6h-2.1C64.9,56.5,64.9,58.1,64.9,58.1z"/>
		<path class="st5" d="M70.2,56.6v2h-0.6v-4.9h1.3c0.2,0,0.4,0,0.6,0s0.3,0.1,0.4,0.1c0.4,0.1,0.6,0.3,0.8,0.5
			c0.2,0.2,0.3,0.5,0.3,0.8c0,0.2,0,0.4-0.1,0.5s-0.1,0.3-0.3,0.4c-0.1,0.1-0.3,0.2-0.4,0.3c-0.1,0.1-0.4,0.1-0.6,0.1l0,0l1.4,2.1
			h-0.6l-1.5-2L70.2,56.6L70.2,56.6z M70.2,54.3v1.8h0.6c0.2,0,0.4,0,0.5,0c0.1,0,0.2,0,0.4-0.1c0.2-0.1,0.4-0.1,0.5-0.3
			c0.1-0.1,0.1-0.4,0.1-0.6c0-0.2-0.1-0.4-0.1-0.5c-0.1-0.1-0.3-0.2-0.4-0.3c-0.1,0-0.2-0.1-0.3-0.1c-0.1,0-0.3,0-0.5,0H70.2z"/>
		<path class="st5" d="M77.7,56.5c0.3,0.4,0.6,0.8,0.9,1.3l0,0c0-0.5-0.1-1-0.1-1.5v-2.6h0.6v4.9h-0.6l-1.9-2.7
			c-0.4-0.5-0.6-0.9-0.9-1.3l0,0c0,0.4,0.1,1,0.1,1.6v2.5h-0.6v-4.9h0.6L77.7,56.5z"/>
		<path class="st5" d="M81,58.7l2-4.9h0.5l2,4.9h-0.6l-0.6-1.5h-2l-0.6,1.5H81z M83.3,54.5c-0.2,0.6-0.4,1.1-0.6,1.6l-0.2,0.5H84
			l-0.2-0.4C83.7,55.6,83.5,55.1,83.3,54.5L83.3,54.5z"/>
		<path class="st5" d="M88.8,58.7h-0.6v-4.3h-1.6v-0.6h3.9v0.6h-1.6L88.8,58.7L88.8,58.7z"/>
		<path class="st5" d="M92.3,58.7v-4.9h0.6v4.9H92.3z"/>
		<path class="st5" d="M99.7,56.2c0,0.4-0.1,0.7-0.1,1c-0.1,0.3-0.3,0.6-0.4,0.8c-0.2,0.2-0.4,0.4-0.7,0.5c-0.3,0.1-0.6,0.2-0.9,0.2
			s-0.7-0.1-1-0.2c-0.3-0.1-0.5-0.3-0.7-0.5c-0.2-0.2-0.4-0.5-0.4-0.8c-0.1-0.3-0.1-0.6-0.1-1s0.1-0.7,0.1-1
			c0.1-0.3,0.3-0.6,0.4-0.8c0.2-0.2,0.4-0.4,0.7-0.5c0.3-0.1,0.6-0.2,0.9-0.2s0.7,0.1,0.9,0.2c0.3,0.1,0.5,0.3,0.7,0.5
			c0.2,0.2,0.4,0.5,0.4,0.8C99.7,55.5,99.7,55.8,99.7,56.2z M99.1,56.2c0-0.4-0.1-0.6-0.1-0.8c-0.1-0.3-0.2-0.4-0.4-0.6
			c-0.1-0.1-0.4-0.3-0.6-0.4c-0.2-0.1-0.4-0.1-0.6-0.1c-0.2,0-0.4,0.1-0.6,0.1c-0.2,0.1-0.4,0.2-0.6,0.4c-0.1,0.1-0.3,0.4-0.4,0.6
			c-0.1,0.3-0.1,0.6-0.1,0.8c0,0.4,0.1,0.6,0.1,0.8c0.1,0.3,0.2,0.4,0.4,0.6c0.1,0.1,0.4,0.3,0.6,0.4c0.2,0.1,0.4,0.1,0.6,0.1
			c0.2,0,0.4-0.1,0.6-0.1c0.2-0.1,0.4-0.2,0.6-0.4c0.1-0.1,0.3-0.4,0.4-0.6C99,56.8,99.1,56.5,99.1,56.2z"/>
		<path class="st5" d="M104.5,56.5c0.3,0.4,0.6,0.8,0.9,1.3l0,0c0-0.5-0.1-1-0.1-1.5v-2.6h0.6v4.9h-0.6l-1.9-2.7
			c-0.4-0.5-0.6-0.9-0.9-1.3l0,0c0,0.4,0.1,1,0.1,1.6v2.5H102v-4.9h0.6L104.5,56.5z"/>
		<path class="st5" d="M107.8,58.7l2-4.9h0.5l2,4.9h-0.6l-0.6-1.5h-2l-0.6,1.5H107.8z M110,54.5c-0.2,0.6-0.4,1.1-0.6,1.6l-0.2,0.5
			h1.6l-0.2-0.4C110.5,55.6,110.2,55.1,110,54.5L110,54.5z"/>
		<path class="st5" d="M114.8,53.7V58h2.4v0.6h-3v-4.9H114.8z"/>
		<path class="st5" d="M119.2,58.7V58h0.7v0.7H119.2z"/>
		<path class="st5" d="M124.7,54.2c-0.3,0-0.5,0.1-0.8,0.1c-0.2,0.1-0.4,0.2-0.6,0.4c-0.1,0.1-0.3,0.4-0.4,0.6
			c-0.1,0.3-0.1,0.6-0.1,0.9s0.1,0.6,0.1,0.8c0.1,0.2,0.2,0.4,0.4,0.6c0.1,0.1,0.4,0.3,0.6,0.4c0.2,0.1,0.5,0.1,0.8,0.1
			c0.1,0,0.1,0,0.3,0c0.1,0,0.2,0,0.3-0.1c0.1,0,0.2,0,0.3-0.1c0.1,0,0.1-0.1,0.2-0.1v0.5c-0.1,0.1-0.3,0.1-0.5,0.1
			c-0.2,0-0.4,0.1-0.6,0.1c-0.4,0-0.8-0.1-1.1-0.1c-0.3-0.1-0.6-0.3-0.8-0.5c-0.2-0.2-0.4-0.5-0.5-0.8c-0.1-0.3-0.1-0.6-0.1-1.1
			c0-0.4,0.1-0.7,0.1-1.1c0.1-0.4,0.3-0.6,0.5-0.8c0.2-0.2,0.5-0.4,0.8-0.6c0.3-0.1,0.6-0.2,1.1-0.2c0.1,0,0.2,0,0.3,0
			c0.1,0,0.2,0,0.3,0.1c0.1,0,0.1,0,0.3,0.1c0.1,0,0.1,0.1,0.2,0.1v0.6c-0.1-0.1-0.3-0.1-0.5-0.1C125.1,54.2,124.9,54.2,124.7,54.2z
			"/>
		<path class="st5" d="M132.3,56.2c0,0.4-0.1,0.7-0.1,1c-0.1,0.3-0.3,0.6-0.4,0.8c-0.2,0.2-0.4,0.4-0.7,0.5
			c-0.3,0.1-0.6,0.2-0.9,0.2s-0.7-0.1-1-0.2c-0.3-0.1-0.5-0.3-0.7-0.5c-0.2-0.2-0.4-0.5-0.4-0.8s-0.1-0.6-0.1-1s0.1-0.7,0.1-1
			c0.1-0.3,0.3-0.6,0.4-0.8c0.2-0.2,0.4-0.4,0.7-0.5c0.3-0.1,0.6-0.2,0.9-0.2s0.7,0.1,0.9,0.2c0.3,0.1,0.5,0.3,0.7,0.5
			c0.2,0.2,0.4,0.5,0.4,0.8C132.2,55.5,132.3,55.8,132.3,56.2z M131.6,56.2c0-0.4-0.1-0.6-0.1-0.8c-0.1-0.3-0.2-0.4-0.4-0.6
			c-0.1-0.1-0.4-0.3-0.6-0.4c-0.2-0.1-0.4-0.1-0.6-0.1s-0.4,0.1-0.6,0.1c-0.2,0.1-0.4,0.2-0.6,0.4c-0.1,0.1-0.3,0.4-0.4,0.6
			c-0.1,0.3-0.1,0.6-0.1,0.8c0,0.4,0.1,0.6,0.1,0.8c0.1,0.3,0.2,0.4,0.4,0.6c0.1,0.1,0.4,0.3,0.6,0.4c0.2,0.1,0.4,0.1,0.6,0.1
			c0.2,0,0.4-0.1,0.6-0.1c0.2-0.1,0.4-0.2,0.6-0.4c0.1-0.1,0.3-0.4,0.4-0.6C131.6,56.8,131.6,56.5,131.6,56.2z"/>
		<path class="st5" d="M137.1,58.7h-0.3l-1.2-2.9c-0.1-0.4-0.4-0.8-0.5-1.3l0,0c0,0.7,0.1,1.3,0.1,1.8v2.3h-0.6v-4.9h0.8l1.1,2.8
			c0.1,0.3,0.3,0.7,0.4,1.1l0,0c0.1-0.5,0.4-0.8,0.4-1.1l1.1-2.8h0.8v4.9h-0.6v-2.3c0-0.6,0-1.2,0.1-1.8l0,0
			c-0.2,0.5-0.4,0.9-0.5,1.3L137.1,58.7z"/>
	</g>
</g>
</svg>
