<?xml version="1.0" encoding="utf-8"?>
<!-- Generator: Adobe Illustrator 23.0.1, SVG Export Plug-In . SVG Version: 6.00 Build 0)  -->
<svg version="1.1" id="Layer_1" xmlns="http://www.w3.org/2000/svg" xmlns:xlink="http://www.w3.org/1999/xlink" x="0px" y="0px"
	 viewBox="0 0 86.3 36.5" style="enable-background:new 0 0 86.3 36.5;" xml:space="preserve">
<style type="text/css">
	.st0{fill:#365872;}
	.st1{fill:#3A8DDE;}
	.st2{fill:#999999;}
	.st3{fill:#CCCCCC;}
	.st4{fill:#909295;}
</style>
<g>
	<polygon class="st0" points="26,15.3 23,13 27.4,24.8 	"/>
	<path class="st1" d="M23,13c0.5,2.5,0,5.1-1.6,7.3L16,27.7l3.7,0.8l7.7-3.7L23,13z"/>
	<polygon class="st2" points="14.2,2.6 11.9,5.6 23.7,1.2 	"/>
	<path class="st3" d="M19.3,7.3l7.4,5.4l0.8-3.7l-3.7-7.7L11.9,5.6C14.4,5.1,17.1,5.7,19.3,7.3z"/>
	<path class="st1" d="M6.1,9.3L11.5,2L7.7,1.2L0.1,4.9l4.5,11.8C4,14.2,4.5,11.5,6.1,9.3z"/>
	<polygon class="st0" points="0.1,4.9 1.4,14.4 4.5,16.7 	"/>
	<path class="st3" d="M8.5,22.7L8.5,22.7L8.5,22.7c-0.1-0.1-0.2-0.1-0.3-0.2l-7.3-5.4l-0.8,3.7l3.7,7.7l11.8-4.5
		C13.2,24.5,10.6,24.1,8.5,22.7z"/>
	<polygon class="st2" points="13.3,27.2 15.6,24.1 3.8,28.5 	"/>
</g>
<g>
	<g>
		<path class="st1" d="M37,20.3l1.2,1.3h-3.9L32,19l3.9-12.9l3.9-2.6h3.9l-1.2,3.9h-1.5L37,20.3z M38.9,16.4h2.3l5.5,6.1h-7.1
			l-1.9-2.2L38.9,16.4z M42,16.4l2.7-9.1h-1.5l1.2-3.9h3.9l2.3,2.6L46.6,19l-1.5,1L42,16.4z"/>
		<path class="st1" d="M59.8,3.5l-5.4,18.1h-5.4l5.4-18.1C54.3,3.5,59.8,3.5,59.8,3.5z M61.5,10.6l1-3.2h-3.1l1.2-3.9h5.4l2.3,2.6
			l-1.7,5.8l-1,0.7l0.6,0.6L64.3,19l-3.8,2.6h-5.5l1.2-3.9h3.1l1-3.2h-3.1l1.1-3.9h0v0C58.3,10.6,61.5,10.6,61.5,10.6z"/>
		<path class="st1" d="M77.5,3.5l-5.4,18.1h-5.4l5.4-18.1C72.1,3.5,77.5,3.5,77.5,3.5z M83.7,3.5L86,6.1l-1.7,5.8l-3.8,2.6H75
			l1.2-3.9h3.1l1-3.2h-3.1l1.2-3.9L83.7,3.5L83.7,3.5z"/>
	</g>
	<g>
		<path class="st4" d="M31.9,28.4v-3.2h0.6v3.2H31.9z"/>
		<path class="st4" d="M36.4,26.7c0.2,0.3,0.4,0.6,0.5,0.9l0,0c0-0.4,0-0.7,0-0.9v-1.5h0.6v3.2h-0.6l-1-1.5
			c-0.2-0.2-0.4-0.5-0.6-0.9l0,0c0,0.4,0,0.7,0,0.9v1.5h-0.6v-3.2h0.6L36.4,26.7z"/>
		<path class="st4" d="M41,28.4h-0.6v-2.7h-1v-0.5H42v0.5h-1L41,28.4L41,28.4z"/>
		<path class="st4" d="M44.6,27.9h1.6v0.5H44v-3.2h2.1v0.5h-1.5v0.8h1.3V27h-1.3C44.6,27,44.6,27.9,44.6,27.9z"/>
		<path class="st4" d="M50.6,26.1c0,0.2,0,0.4-0.2,0.6c-0.1,0.2-0.3,0.2-0.6,0.3l0,0l1,1.3h-0.7l-0.9-1.2h-0.4v1.2h-0.6v-3.2h1
			c0.2,0,0.3,0,0.5,0c0.1,0,0.2,0,0.4,0.1c0.2,0.1,0.3,0.2,0.4,0.3C50.5,25.7,50.6,25.9,50.6,26.1z M49.1,26.6c0.1,0,0.2,0,0.3,0
			c0.1,0,0.2,0,0.2,0c0.1,0,0.2-0.1,0.2-0.2c0-0.1,0.1-0.2,0.1-0.2c0-0.1,0-0.2,0-0.2c0-0.1-0.1-0.1-0.2-0.2c0,0-0.1,0-0.2,0
			s-0.2,0-0.3,0h-0.4v0.9H49.1z"/>
		<path class="st4" d="M54.4,26.7c0.2,0.3,0.4,0.6,0.5,0.9l0,0c0-0.4,0-0.7,0-0.9v-1.5h0.6v3.2h-0.6l-1-1.5
			c-0.2-0.2-0.4-0.5-0.6-0.9l0,0c0,0.4,0,0.7,0,0.9v1.5h-0.6v-3.2h0.6L54.4,26.7z"/>
		<path class="st4" d="M59.6,27.5h-1.2l-0.3,0.8h-0.6l1.2-3.2h0.5l1.2,3.2h-0.6L59.6,27.5z M58.9,26c-0.1,0.3-0.2,0.6-0.3,0.8
			l-0.1,0.3h0.8l-0.1-0.3C59.2,26.5,59.1,26.3,58.9,26L58.9,26z"/>
		<path class="st4" d="M63.4,28.4h-0.6v-2.7h-1v-0.5h2.6v0.5h-1L63.4,28.4L63.4,28.4z"/>
		<path class="st4" d="M66.4,28.4v-3.2H67v3.2H66.4z"/>
		<path class="st4" d="M72.1,26.8c0,0.2,0,0.5-0.1,0.7c-0.1,0.2-0.2,0.4-0.3,0.5c-0.1,0.1-0.3,0.2-0.5,0.3c-0.2,0.1-0.4,0.1-0.7,0.1
			c-0.2,0-0.5,0-0.7-0.1c-0.2-0.1-0.4-0.2-0.5-0.3c-0.1-0.2-0.2-0.3-0.3-0.5C69,27.2,69,27,69,26.8c0-0.2,0-0.5,0.1-0.7
			c0.1-0.2,0.2-0.4,0.3-0.5c0.1-0.1,0.3-0.2,0.5-0.3c0.2-0.1,0.4-0.1,0.7-0.1c0.2,0,0.5,0,0.7,0.1c0.2,0.1,0.4,0.2,0.5,0.3
			c0.1,0.2,0.2,0.3,0.3,0.5C72.1,26.3,72.1,26.5,72.1,26.8z M71.5,26.8c0-0.2,0-0.4-0.1-0.5c0-0.1-0.1-0.2-0.2-0.4
			c-0.1-0.1-0.2-0.2-0.3-0.2s-0.2-0.1-0.4-0.1c-0.1,0-0.2,0-0.4,0.1c-0.1,0-0.2,0.1-0.3,0.2s-0.2,0.2-0.2,0.4c0,0.1-0.1,0.3-0.1,0.5
			c0,0.2,0,0.4,0.1,0.5c0,0.1,0.1,0.2,0.2,0.4c0.1,0.1,0.2,0.2,0.3,0.2c0.1,0,0.2,0.1,0.4,0.1c0.1,0,0.2,0,0.4-0.1
			c0.1,0,0.2-0.1,0.3-0.2s0.2-0.2,0.2-0.4C71.5,27.1,71.5,27,71.5,26.8z"/>
		<path class="st4" d="M75.9,26.7c0.2,0.3,0.4,0.6,0.5,0.9l0,0c0-0.4,0-0.7,0-0.9v-1.5h0.6v3.2h-0.6l-1-1.5
			c-0.2-0.2-0.4-0.5-0.6-0.9l0,0c0,0.4,0,0.7,0,0.9v1.5h-0.5v-3.2h0.6L75.9,26.7z"/>
		<path class="st4" d="M81,27.5h-1.2l-0.3,0.8h-0.6l1.2-3.2h0.5l1.2,3.2h-0.6L81,27.5z M80.4,26c-0.1,0.3-0.2,0.6-0.3,0.8L80,27.1
			h0.8l-0.1-0.3C80.7,26.5,80.6,26.3,80.4,26L80.4,26z"/>
		<path class="st4" d="M84.4,25.2v2.7h1.5v0.5h-2.1v-3.2L84.4,25.2L84.4,25.2z"/>
	</g>
</g>
</svg>
