<?xml version="1.0" encoding="utf-8"?>
<!-- Generator: Adobe Illustrator 23.0.1, SVG Export Plug-In . SVG Version: 6.00 Build 0)  -->
<svg version="1.1" id="Layer_1" xmlns="http://www.w3.org/2000/svg" xmlns:xlink="http://www.w3.org/1999/xlink" x="0px" y="0px"
	 viewBox="0 0 128.3 42.7" style="enable-background:new 0 0 128.3 42.7;" xml:space="preserve">
<style type="text/css">
	.st0{fill:#365872;}
	.st1{fill:#3A8DDE;}
	.st2{fill:#999999;}
	.st3{fill:#CCCCCC;}
	.st4{fill:#909295;}
</style>
<g>
	<polygon class="st0" points="38.6,22 34.1,18.7 40.7,36.2 	"/>
	<path class="st1" d="M34.1,18.7c0.7,3.7,0,7.6-2.4,10.9l-8,10.9l5.5,1.2l11.5-5.5L34.1,18.7z"/>
	<polygon class="st2" points="21,3.1 17.7,7.6 35.2,1 	"/>
	<path class="st3" d="M28.6,10.1l10.9,8l1.2-5.5L35.2,1L17.7,7.6C21.4,6.9,25.3,7.7,28.6,10.1z"/>
	<path class="st1" d="M9.1,13.1L17,2.2L11.4,1L0,6.5L6.7,24C5.9,20.3,6.7,16.4,9.1,13.1z"/>
	<polygon class="st0" points="0,6.5 2.1,20.7 6.7,24 	"/>
	<path class="st3" d="M12.6,32.9L12.6,32.9L12.6,32.9c-0.2-0.1-0.3-0.2-0.4-0.3l-10.9-8L0,30.2l5.5,11.5L23,35.1
		C19.5,35.7,15.7,35.1,12.6,32.9z"/>
	<polygon class="st2" points="19.7,39.6 23,35.1 5.5,41.7 	"/>
</g>
<g>
	<g>
		<path class="st1" d="M54.9,29.5l1.7,1.9h-5.7l-3.5-3.8l5.8-19.2l5.7-3.8h5.8L63,10.2h-2.3L54.9,29.5z M57.8,23.7h3.4l8.2,9.1H58.8
			L56,29.5L57.8,23.7z M62.4,23.7l4-13.5h-2.3l1.7-5.8h5.8L75,8.3l-5.7,19.2L67.1,29L62.4,23.7z"/>
		<path class="st1" d="M88.7,4.4l-8,26.9h-8l8-26.9H88.7z M91.3,15l1.4-4.8h-4.6l1.7-5.8h8.1l3.4,3.8l-2.6,8.7l-1.5,1l0.9,0.9
			l-2.6,8.7l-5.7,3.8l-8.1,0l1.7-5.8l4.6,0l1.4-4.8l-4.6,0l1.7-5.8h0l0,0H91.3z"/>
		<path class="st1" d="M115.1,4.4l-8,26.9h-8l8-26.9H115.1z M124.3,4.4l3.4,3.8l-2.6,8.7l-5.7,3.8l-8.1,0l1.7-5.8l4.6,0l1.4-4.8
			l-4.6,0l1.7-5.8H124.3z"/>
	</g>
	<g>
		<path class="st4" d="M47.4,41.4v-4.7h0.9v4.7H47.4z"/>
		<path class="st4" d="M54,38.9c0.3,0.5,0.6,0.9,0.8,1.3h0c0-0.6,0-1.1,0-1.3v-2.1h0.9v4.7h-0.9l-1.5-2.2c-0.3-0.4-0.6-0.8-0.8-1.3
			h0c0,0.6,0,1,0,1.3v2.1h-0.9v-4.7h0.9L54,38.9z"/>
		<path class="st4" d="M60.9,41.4h-0.9v-4h-1.5v-0.7h3.9v0.7h-1.5V41.4z"/>
		<path class="st4" d="M66.2,40.7h2.3v0.7h-3.2v-4.7h3.1v0.7h-2.2v1.2h1.9v0.7h-1.9V40.7z"/>
		<path class="st4" d="M75.1,38.1c0,0.3-0.1,0.6-0.3,0.8c-0.2,0.2-0.5,0.4-0.8,0.5v0l1.4,1.9h-1L73,39.6h-0.6v1.8h-0.9v-4.7H73
			c0.2,0,0.5,0,0.7,0c0.2,0,0.4,0.1,0.5,0.1c0.3,0.1,0.5,0.3,0.6,0.5C75,37.5,75.1,37.8,75.1,38.1z M72.9,38.9c0.2,0,0.4,0,0.5,0
			c0.1,0,0.3,0,0.3-0.1c0.2-0.1,0.3-0.2,0.4-0.3c0.1-0.1,0.1-0.2,0.1-0.4c0-0.1,0-0.2-0.1-0.3c-0.1-0.1-0.1-0.2-0.3-0.2
			c-0.1,0-0.2-0.1-0.3-0.1c-0.1,0-0.3,0-0.5,0h-0.6v1.4H72.9z"/>
		<path class="st4" d="M80.8,38.9c0.3,0.5,0.6,0.9,0.8,1.3h0c0-0.6,0-1.1,0-1.3v-2.1h0.9v4.7h-0.9L80,39.2c-0.3-0.4-0.6-0.8-0.8-1.3
			h0c0,0.6,0,1,0,1.3v2.1h-0.9v-4.7h0.9L80.8,38.9z"/>
		<path class="st4" d="M88.4,40.2h-1.8l-0.5,1.2h-0.9l1.9-4.7h0.8l1.9,4.7h-0.9L88.4,40.2z M87.5,37.8c-0.2,0.5-0.3,0.9-0.4,1.2
			l-0.2,0.4h1.2L88,39.1C87.9,38.7,87.7,38.3,87.5,37.8L87.5,37.8z"/>
		<path class="st4" d="M94.2,41.4h-0.9v-4h-1.5v-0.7h3.9v0.7h-1.5V41.4z"/>
		<path class="st4" d="M98.6,41.4v-4.7h0.9v4.7H98.6z"/>
		<path class="st4" d="M107.1,39c0,0.4-0.1,0.7-0.2,1c-0.1,0.3-0.3,0.6-0.4,0.8c-0.2,0.2-0.4,0.4-0.7,0.5c-0.3,0.1-0.6,0.2-1,0.2
			c-0.4,0-0.7-0.1-1-0.2c-0.3-0.1-0.5-0.3-0.7-0.5c-0.2-0.2-0.3-0.5-0.4-0.8c-0.1-0.3-0.2-0.6-0.2-1c0-0.4,0.1-0.7,0.2-1
			c0.1-0.3,0.3-0.6,0.4-0.8c0.2-0.2,0.4-0.4,0.7-0.5c0.3-0.1,0.6-0.2,1-0.2c0.4,0,0.7,0.1,1,0.2c0.3,0.1,0.5,0.3,0.7,0.5
			c0.2,0.2,0.3,0.5,0.4,0.8C107.1,38.4,107.1,38.7,107.1,39z M106.3,39c0-0.3,0-0.5-0.1-0.8c-0.1-0.2-0.2-0.4-0.3-0.5
			c-0.1-0.1-0.3-0.3-0.4-0.3c-0.2-0.1-0.4-0.1-0.6-0.1c-0.2,0-0.4,0-0.6,0.1c-0.2,0.1-0.3,0.2-0.4,0.3c-0.1,0.1-0.2,0.3-0.3,0.5
			c-0.1,0.2-0.1,0.5-0.1,0.8c0,0.3,0,0.5,0.1,0.8c0.1,0.2,0.2,0.4,0.3,0.5c0.1,0.1,0.3,0.2,0.4,0.3c0.2,0.1,0.4,0.1,0.6,0.1
			c0.2,0,0.4,0,0.6-0.1c0.2-0.1,0.3-0.2,0.4-0.3c0.1-0.1,0.2-0.3,0.3-0.5C106.2,39.6,106.3,39.3,106.3,39z"/>
		<path class="st4" d="M112.7,38.9c0.3,0.5,0.6,0.9,0.8,1.3h0c0-0.6,0-1.1,0-1.3v-2.1h0.9v4.7h-0.9l-1.5-2.2
			c-0.3-0.4-0.6-0.8-0.8-1.3h0c0,0.6,0,1,0,1.3v2.1h-0.9v-4.7h0.9L112.7,38.9z"/>
		<path class="st4" d="M120.4,40.2h-1.8l-0.5,1.2h-0.9l1.9-4.7h0.8l1.9,4.7h-0.9L120.4,40.2z M119.5,37.8c-0.2,0.5-0.3,0.9-0.4,1.2
			l-0.2,0.4h1.2l-0.2-0.4C119.8,38.7,119.7,38.3,119.5,37.8L119.5,37.8z"/>
		<path class="st4" d="M125.5,36.7v4h2.2v0.7h-3.1v-4.7H125.5z"/>
	</g>
</g>
</svg>
